<svg xmlns="http://www.w3.org/2000/svg" width="255" height="55" viewBox="0 0 255 55"><rect width="100%" height="100%" fill="#007ae3"/><path fill="#FFF" d="M102.115 31.985h8.09v3.11h-11.86v-20.24h3.77v17.13Zm16.59-11.48q1.59 0 2.9.52 1.31.52 2.24 1.47.93.95 1.44 2.32.5 1.38.5 3.07 0 1.71-.5 3.08-.51 1.37-1.44 2.34-.93.96-2.24 1.48t-2.9.52q-1.61 0-2.93-.52-1.31-.52-2.24-1.48-.94-.97-1.45-2.34-.51-1.37-.51-3.08 0-1.69.51-3.07.51-1.37 1.45-2.32.93-.95 2.24-1.47 1.32-.52 2.93-.52Zm0 12.14q1.79 0 2.65-1.2.86-1.21.86-3.53 0-2.33-.86-3.54-.86-1.22-2.65-1.22-1.82 0-2.7 1.22-.87 1.23-.87 3.54t.87 3.52q.88 1.21 2.7 1.21Zm14.98-5.08q.64 0 1.12-.18.47-.17.79-.48.31-.31.48-.74.16-.44.16-.95 0-1.07-.64-1.69-.64-.62-1.91-.62-1.28 0-1.91.62-.64.62-.64 1.69 0 .5.16.93.16.44.48.75.31.32.8.49.48.18 1.11.18Zm3.9 8.17q0-.42-.25-.68-.25-.27-.68-.42-.44-.14-1.02-.21-.58-.07-1.23-.11l-1.34-.06q-.7-.03-1.36-.11-.57.32-.93.75-.35.44-.35 1.01 0 .38.19.71.18.33.6.57.41.23 1.07.37.66.13 1.61.13.96 0 1.66-.15.7-.14 1.16-.4.45-.26.66-.62.21-.36.21-.78Zm-.68-14.51h4.13v1.28q0 .62-.74.76l-1.29.24q.29.74.29 1.62 0 1.07-.42 1.93-.43.86-1.19 1.46-.75.6-1.78.93-1.03.33-2.22.33-.42 0-.81-.04-.4-.04-.77-.11-.68.4-.68.91 0 .43.4.63.4.21 1.06.29.66.08 1.5.1.84.03 1.72.1t1.72.24q.84.18 1.5.55.66.38 1.06 1.03t.4 1.68q0 .95-.47 1.84-.47.9-1.36 1.6-.89.7-2.18 1.13-1.3.42-2.95.42-1.63 0-2.83-.31-1.2-.32-2-.84-.8-.53-1.19-1.21-.39-.69-.39-1.43 0-1.01.61-1.69.6-.68 1.67-1.08-.58-.3-.91-.79-.34-.49-.34-1.28 0-.33.12-.67t.35-.68q.23-.33.58-.64.35-.3.83-.53-1.09-.59-1.72-1.57-.62-.98-.62-2.3 0-1.06.43-1.92.42-.86 1.19-1.47.76-.61 1.8-.93 1.05-.33 2.28-.33.92 0 1.73.19.82.19 1.49.56Zm12.67-.72q1.59 0 2.9.52 1.31.52 2.24 1.47.93.95 1.44 2.32.5 1.38.5 3.07 0 1.71-.5 3.08-.51 1.37-1.44 2.34-.93.96-2.24 1.48t-2.9.52q-1.61 0-2.93-.52-1.31-.52-2.24-1.48-.94-.97-1.45-2.34-.51-1.37-.51-3.08 0-1.69.51-3.07.51-1.37 1.45-2.32.93-.95 2.24-1.47 1.32-.52 2.93-.52Zm0 12.14q1.79 0 2.65-1.2.86-1.21.86-3.53 0-2.33-.86-3.54-.86-1.22-2.65-1.22-1.82 0-2.7 1.22-.87 1.23-.87 3.54t.87 3.52q.88 1.21 2.7 1.21Z"/></svg>